<?xml version="1.0" encoding="UTF-8"?>
<!DOCTYPE svg PUBLIC "-//W3C//DTD SVG 1.1//EN" "http://www.w3.org/Graphics/SVG/1.1/DTD/svg11.dtd">
<svg xmlns="http://www.w3.org/2000/svg" version="1.1" width="2000px" height="383px" style="shape-rendering:geometricPrecision; text-rendering:geometricPrecision; image-rendering:optimizeQuality; fill-rule:evenodd; clip-rule:evenodd" xmlns:xlink="http://www.w3.org/1999/xlink">
<g><path style="opacity:0.97" fill="#003567" d="M 342.5,55.5 C 419.503,55.1667 496.503,55.5 573.5,56.5C 577.794,69.6769 581.461,83.0103 584.5,96.5C 572.167,96.5 559.833,96.5 547.5,96.5C 547.5,170.167 547.5,243.833 547.5,317.5C 531.5,317.5 515.5,317.5 499.5,317.5C 499.5,268.833 499.5,220.167 499.5,171.5C 483.5,171.5 467.5,171.5 451.5,171.5C 451.5,220.167 451.5,268.833 451.5,317.5C 435.5,317.5 419.5,317.5 403.5,317.5C 403.5,268.833 403.5,220.167 403.5,171.5C 387.5,171.5 371.5,171.5 355.5,171.5C 355.5,220.167 355.5,268.833 355.5,317.5C 339.5,317.5 323.5,317.5 307.5,317.5C 307.667,268.499 307.5,219.499 307,170.5C 303.11,157.002 298.944,143.669 294.5,130.5C 362.833,130.5 431.167,130.5 499.5,130.5C 499.5,119.167 499.5,107.833 499.5,96.5C 451.166,96.6667 402.832,96.5 354.5,96C 350.402,82.5392 346.402,69.0392 342.5,55.5 Z"/></g>
<g><path style="opacity:0.974" fill="#003567" d="M 1354.5,55.5 C 1406.83,55.5 1459.17,55.5 1511.5,55.5C 1511.5,136.5 1511.5,217.5 1511.5,298.5C 1485.04,307.567 1458.71,316.9 1432.5,326.5C 1406.88,317.18 1381.21,307.847 1355.5,298.5C 1354.5,242.504 1354.17,186.504 1354.5,130.5C 1390.83,130.5 1427.17,130.5 1463.5,130.5C 1463.5,119.167 1463.5,107.833 1463.5,96.5C 1430.83,96.5 1398.17,96.5 1365.5,96.5C 1361.45,82.9307 1357.79,69.264 1354.5,55.5 Z M 1402.5,171.5 C 1422.83,171.5 1443.17,171.5 1463.5,171.5C 1463.5,206.5 1463.5,241.5 1463.5,276.5C 1443.17,276.5 1422.83,276.5 1402.5,276.5C 1402.5,241.5 1402.5,206.5 1402.5,171.5 Z"/></g>
<g><path style="opacity:0.971" fill="#003567" d="M 583.5,130.5 C 635.833,130.5 688.167,130.5 740.5,130.5C 740.5,186.5 740.5,242.5 740.5,298.5C 714.328,307.725 688.162,317.058 662,326.5C 635.965,316.729 609.798,307.396 583.5,298.5C 583.5,242.5 583.5,186.5 583.5,130.5 Z M 631.5,171.5 C 651.833,171.5 672.167,171.5 692.5,171.5C 692.5,206.5 692.5,241.5 692.5,276.5C 672.167,276.5 651.833,276.5 631.5,276.5C 631.5,241.5 631.5,206.5 631.5,171.5 Z"/></g>
<g><path style="opacity:0.969" fill="#003567" d="M 776.5,130.5 C 828.833,130.5 881.167,130.5 933.5,130.5C 933.667,169.835 933.5,209.168 933,248.5C 897.26,261.858 861.427,275.025 825.5,288C 824.514,297.75 824.181,307.584 824.5,317.5C 808.589,317.825 792.756,317.491 777,316.5C 776.5,254.501 776.333,192.501 776.5,130.5 Z M 824.5,171.5 C 844.833,171.5 865.167,171.5 885.5,171.5C 885.175,188.411 885.508,205.244 886.5,222C 866.282,229.795 845.949,237.295 825.5,244.5C 824.5,220.176 824.167,195.842 824.5,171.5 Z"/></g>
<g><path style="opacity:0.97" fill="#003567" d="M 967.5,130.5 C 1019.83,130.5 1072.17,130.5 1124.5,130.5C 1124.5,192.833 1124.5,255.167 1124.5,317.5C 1108.5,317.5 1092.5,317.5 1076.5,317.5C 1076.5,268.833 1076.5,220.167 1076.5,171.5C 1056.17,171.5 1035.83,171.5 1015.5,171.5C 1015.5,220.167 1015.5,268.833 1015.5,317.5C 999.5,317.5 983.5,317.5 967.5,317.5C 967.5,255.167 967.5,192.833 967.5,130.5 Z"/></g>
<g><path style="opacity:0.962" fill="#003567" d="M 1160.5,130.5 C 1213.17,130.5 1265.83,130.5 1318.5,130.5C 1318.67,160.169 1318.5,189.835 1318,219.5C 1281.47,232.845 1244.97,246.345 1208.5,260C 1209.83,265.333 1209.83,270.667 1208.5,276C 1241.17,276.167 1273.84,276.667 1306.5,277.5C 1310.35,290.546 1314.35,303.546 1318.5,316.5C 1265.93,317.83 1213.43,317.83 1161,316.5C 1160.5,254.501 1160.33,192.501 1160.5,130.5 Z M 1209.5,216.5 C 1209.82,201.588 1209.49,186.755 1208.5,172C 1229.17,171.333 1249.83,171.333 1270.5,172C 1269.17,179.667 1269.17,187.333 1270.5,195C 1250.32,202.671 1229.99,209.837 1209.5,216.5 Z"/></g>
<g><path style="opacity:0.976" fill="#003567" d="M 1547.5,130.5 C 1599.83,130.5 1652.17,130.5 1704.5,130.5C 1704.5,186.5 1704.5,242.5 1704.5,298.5C 1678.2,307.396 1652.04,316.729 1626,326.5C 1599.84,317.058 1573.67,307.725 1547.5,298.5C 1547.5,242.5 1547.5,186.5 1547.5,130.5 Z M 1595.5,171.5 C 1615.83,171.5 1636.17,171.5 1656.5,171.5C 1656.5,206.5 1656.5,241.5 1656.5,276.5C 1636.17,276.5 1615.83,276.5 1595.5,276.5C 1595.5,241.5 1595.5,206.5 1595.5,171.5 Z"/></g>
</svg>
